<svg xmlns="http://www.w3.org/2000/svg" width="24" height="24" viewBox="0 0 256 256" xml:space="preserve"><g style="stroke:none;stroke-width:0;stroke-dasharray:none;stroke-linecap:butt;stroke-linejoin:miter;stroke-miterlimit:10;fill:none;fill-rule:nonzero;opacity:1"><path d="M69.473 36.819a5 5 0 0 0-7.046.599L50 52.155V5a5 5 0 1 0-10 0v47.155L27.573 37.418a5 5 0 0 0-7.644 6.446l21.25 25.199c.075.088.156.168.236.251.028.029.054.059.083.088a5.078 5.078 0 0 0 .776.622c.23.15.471.282.722.392.05.022.101.04.151.061a5 5 0 0 0 .813.252c.035.007.071.011.106.018.306.058.618.094.935.094.317 0 .628-.036.934-.094.035-.007.071-.01.106-.018a4.96 4.96 0 0 0 .812-.252c.052-.021.103-.039.154-.062a5.043 5.043 0 0 0 .856-.483c.226-.158.441-.333.64-.528.03-.029.057-.061.086-.091.079-.082.161-.161.234-.249l21.249-25.199a5.001 5.001 0 0 0-.599-7.046zM75.787 90H14.212a5 5 0 1 1 0-10h61.575c2.762 0 5 2.238 5 5s-2.238 5-5 5z" style="stroke:none;stroke-width:1;stroke-dasharray:none;stroke-linecap:butt;stroke-linejoin:miter;stroke-miterlimit:10;fill:#000;fill-rule:nonzero;opacity:1" transform="matrix(2.81 0 0 2.81 1.407 1.407)"/></g></svg>