<svg width="32" height="32" fill="none" xmlns="http://www.w3.org/2000/svg"><path d="M17.369 2.666c1.5.004 2.261.012 2.919.03l.258.01c.299.01.594.024.95.04 1.418.067 2.386.29 3.236.62.88.339 1.62.797 2.362 1.537a6.534 6.534 0 0 1 1.537 2.363c.33.85.554 1.817.62 3.237.016.355.03.65.04.95l.008.258c.02.656.029 1.418.031 2.918l.002.994v1.747c.003.973-.008 1.945-.031 2.917l-.008.259c-.01.3-.024.595-.04.95-.067 1.42-.294 2.386-.622 3.237a6.535 6.535 0 0 1-1.537 2.362 6.535 6.535 0 0 1-2.363 1.538c-.849.329-1.817.553-3.236.62l-.949.04-.258.008c-.658.018-1.42.028-2.92.03l-.994.002H14.63c-.973.003-1.946-.007-2.919-.031l-.259-.008a83.478 83.478 0 0 1-.949-.041c-1.419-.067-2.387-.291-3.237-.62a6.535 6.535 0 0 1-2.362-1.538 6.534 6.534 0 0 1-1.538-2.362c-.33-.85-.554-1.818-.62-3.238l-.04-.949-.007-.259a105.35 105.35 0 0 1-.033-2.917v-2.741c-.004-.973.006-1.945.03-2.918l.008-.258c.011-.3.024-.595.04-.95.067-1.42.291-2.386.62-3.237a6.533 6.533 0 0 1 1.542-2.363 6.533 6.533 0 0 1 2.36-1.537c.85-.33 1.817-.553 3.237-.62.355-.016.65-.03.95-.04l.258-.008a105.31 105.31 0 0 1 2.917-.03l2.742-.002Zm-1.37 6.667a6.667 6.667 0 1 0 0 13.334 6.667 6.667 0 0 0 0-13.334Zm0 2.666a4 4 0 1 1-.003 8A4 4 0 0 1 16 12m7-4.666a1.667 1.667 0 1 0 0 3.333 1.667 1.667 0 0 0 0-3.333Z" fill="#140E0A"/></svg>