<svg width="32" height="32" fill="none" xmlns="http://www.w3.org/2000/svg"><path d="M16.005 2.666c7.364 0 13.334 5.97 13.334 13.333 0 7.364-5.97 13.334-13.334 13.334A13.268 13.268 0 0 1 9.3 27.526l-6.622 1.807 1.803-6.624a13.267 13.267 0 0 1-1.808-6.71c0-7.364 5.97-13.333 13.333-13.333Zm-4.544 7.067-.266.01a1.336 1.336 0 0 0-.496.134 1.733 1.733 0 0 0-.392.304c-.16.15-.251.281-.348.408a3.64 3.64 0 0 0-.755 2.237c.003.653.173 1.29.44 1.884.545 1.203 1.443 2.476 2.627 3.656.285.284.565.57.866.835a12.6 12.6 0 0 0 5.12 2.728l.758.116c.246.013.493-.006.74-.018.39-.02.768-.125 1.112-.308a6.79 6.79 0 0 0 .51-.293s.057-.038.167-.12c.18-.133.29-.228.44-.384.112-.116.205-.25.28-.403.104-.217.208-.632.25-.977.033-.264.023-.408.02-.497-.006-.143-.125-.291-.254-.354l-.776-.348s-1.16-.505-1.87-.828a.667.667 0 0 0-.234-.054.64.64 0 0 0-.504.169c-.007-.003-.096.073-1.06 1.241a.466.466 0 0 1-.49.174 1.872 1.872 0 0 1-.255-.088c-.166-.07-.223-.096-.336-.144a8 8 0 0 1-2.1-1.338c-.168-.146-.324-.306-.484-.461a8.396 8.396 0 0 1-1.36-1.69l-.08-.127a1.328 1.328 0 0 1-.135-.274c-.05-.196.081-.353.081-.353s.324-.355.475-.547c.147-.186.27-.368.35-.497.158-.253.207-.513.125-.715-.374-.912-.76-1.819-1.158-2.721-.078-.179-.312-.307-.524-.332a4.446 4.446 0 0 0-.216-.021 4 4 0 0 0-.537.005l.27-.01Z" fill="#140E0A"/></svg>